<svg xmlns="http://www.w3.org/2000/svg" width="587" height="394" fill="none"><g filter="url(#a)"><rect width="578" height="385" x="4.5" y=".5" fill="#777" rx="26"/><rect width="574.23" height="381.865" x="6.5" y="2.5" fill="url(#b)" rx="25"/><rect width="471.463" height="353.756" x="58.531" y="16.803" fill="#2A2A2A" opacity=".1" rx="5"/><rect width="536" height="346" x="25.53" y="19.803" fill="#E8EAF6" rx="8"/><mask id="c" width="537" height="347" x="25" y="19" maskUnits="userSpaceOnUse" style="mask-type:luminance"><rect width="536" height="346" x="25.53" y="19.803" fill="#fff" rx="8"/></mask><g mask="url(#c)"><path fill="#5267DF" d="M22 20h547v59H22z"/><g fill="#fff"><circle cx="64" cy="50" r="16" opacity=".245"/><circle cx="525" cy="50" r="16" opacity=".104"/><rect width="120" height="6" x="95" y="40" opacity=".75" rx="3"/><rect width="64" height="6" x="95" y="54" opacity=".25" rx="3"/></g><rect width="261" height="316" x="82.531" y="112.803" fill="#fff" rx="8"/><rect width="128" height="316" x="377.53" y="112.803" fill="#fff" rx="8"/><rect width="120" height="6" x="161" y="151" fill="#242A45" opacity=".5" rx="3"/></g></g><circle cx="130" cy="161" r="16" fill="#F98E5D"/><rect width="88" height="6" x="398" y="135" fill="#242A45" opacity=".25" rx="3"/><rect width="88" height="6" x="398" y="155" fill="#242A45" opacity=".25" rx="3"/><rect width="88" height="6" x="398" y="175" fill="#242A45" opacity=".25" rx="3"/><rect width="88" height="6" x="398" y="195" fill="#242A45" opacity=".25" rx="3"/><rect width="88" height="6" x="398" y="229" fill="#242A45" opacity=".25" rx="3"/><rect width="88" height="6" x="398" y="249" fill="#242A45" opacity=".25" rx="3"/><rect width="88" height="6" x="398" y="269" fill="#242A45" opacity=".25" rx="3"/><rect width="64" height="6" x="161" y="165" fill="#242A45" opacity=".25" rx="3"/><circle cx="130" cy="217" r="16" fill="#6AC6D6"/><rect width="120" height="6" x="161" y="207" fill="#242A45" opacity=".5" rx="3"/><rect width="64" height="6" x="161" y="221" fill="#242A45" opacity=".25" rx="3"/><circle cx="130" cy="273" r="16" fill="#A47ED4"/><rect width="120" height="6" x="161" y="263" fill="#242A45" opacity=".5" rx="3"/><rect width="64" height="6" x="161" y="277" fill="#242A45" opacity=".25" rx="3"/><circle cx="130" cy="329" r="16" fill="#EC7878"/><rect width="120" height="6" x="161" y="319" fill="#242A45" opacity=".5" rx="3"/><rect width="64" height="6" x="161" y="333" fill="#242A45" opacity=".25" rx="3"/><defs><linearGradient id="b" x1="852.042" x2="512.325" y1="196.406" y2="-314.444" gradientUnits="userSpaceOnUse"><stop stop-color="#151515"/><stop offset="1" stop-color="#3D3D3D"/></linearGradient><filter id="a" width="586" height="393" x=".5" y=".5" color-interpolation-filters="sRGB" filterUnits="userSpaceOnUse"><feFlood flood-opacity="0" result="BackgroundImageFix"/><feColorMatrix in="SourceAlpha" result="hardAlpha" values="0 0 0 0 0 0 0 0 0 0 0 0 0 0 0 0 0 0 127 0"/><feOffset dy="4"/><feGaussianBlur stdDeviation="2"/><feComposite in2="hardAlpha" operator="out"/><feColorMatrix values="0 0 0 0 0 0 0 0 0 0 0 0 0 0 0 0 0 0 0.25 0"/><feBlend in2="BackgroundImageFix" result="effect1_dropShadow_0_372"/><feBlend in="SourceGraphic" in2="effect1_dropShadow_0_372" result="shape"/></filter></defs></svg>