<svg xmlns="http://www.w3.org/2000/svg" width="24" height="19.504" fill="none"><path fill="#FFF" fill-rule="evenodd" d="M24 2.31a9.832 9.832 0 0 1-2.828.774A4.932 4.932 0 0 0 23.337.36a9.863 9.863 0 0 1-3.127 1.195A4.915 4.915 0 0 0 16.616 0c-3.179 0-5.515 2.966-4.797 6.045A13.978 13.978 0 0 1 1.671.9a4.93 4.93 0 0 0 1.523 6.574A4.903 4.903 0 0 1 .965 6.86c-.054 2.28 1.581 4.415 3.949 4.89a4.935 4.935 0 0 1-2.224.084 4.927 4.927 0 0 0 4.6 3.419A9.9 9.9 0 0 1 0 17.292a13.94 13.94 0 0 0 7.548 2.212c9.142 0 14.307-7.721 13.995-14.646A10.024 10.024 0 0 0 24 2.309Z"/></svg>