<svg xmlns="http://www.w3.org/2000/svg" width="101.801" height="99.999" fill="none"><path fill="#E16B5A" d="M50.768.009s30.01-1.324 45.916 28.25H48.217s-9.154-.296-16.957 10.594c-2.25 4.56-4.65 9.27-1.95 18.538-3.9-6.473-20.708-35.165-20.708-35.165S20.457 1.186 50.768.01Z"/><path fill="#FFD464" d="M95.122 75.095S81.284 101.238 47.21 99.952c4.204-7.134 24.24-41.153 24.24-41.153s4.837-7.626-.875-19.696c-2.903-4.193-11.7-8.586-21.237-10.929 7.67-.075 47.25.005 47.25.005s12.653 20.59-1.466 46.916Z"/><path fill="#74B340" d="M6.628 75.293s-16.17-24.825 2.004-53.115L32.857 63.34s4.314 7.92 17.832 9.105c5.153-.369 10.514-.682 17.35-7.608-3.769 6.55-20.712 35.162-20.712 35.162s-24.51.448-40.7-24.706Z"/><ellipse cx="50.646" cy="50.406" fill="#FFF" rx="23.064" ry="22.656"/><ellipse cx="50.638" cy="50.406" fill="#2995CC" rx="18.292" ry="17.969"/><path fill="#268CBF" d="M50.643 32.44c-.364 0-.724.014-1.082.035 9.598.55 17.209 8.368 17.209 17.934 0 9.567-7.611 17.386-17.21 17.937.36.02.72.033 1.083.033 10.101 0 18.292-8.046 18.292-17.97 0-9.923-8.19-17.968-18.292-17.968Z"/></svg>