<svg xmlns="http://www.w3.org/2000/svg" width="96" height="100" fill="none"><mask id="a" fill="#fff"><path fill-rule="evenodd" d="M48 0C21.49 0 0 22.386 0 50s21.49 50 48 50 48-22.386 48-50S74.51 0 48 0Zm0 10c-13.807 0-25 17.909-25 40s11.193 40 25 40 25-17.909 25-40-11.193-40-25-40Z" clip-rule="evenodd"/></mask><path fill="#EB6060" fill-rule="evenodd" d="M48 0C21.49 0 0 22.386 0 50s21.49 50 48 50 48-22.386 48-50S74.51 0 48 0Zm0 10c-13.807 0-25 17.909-25 40s11.193 40 25 40 25-17.909 25-40-11.193-40-25-40Z" clip-rule="evenodd" mask="url(#a)"/></svg>