<svg xmlns="http://www.w3.org/2000/svg" width="284" height="4" fill="none"><mask id="a" fill="#fff"><path fill-rule="evenodd" d="M0 2a2 2 0 1 1 4 0 2 2 0 0 1-4 0Zm18 0a2 2 0 1 1 4 0 2 2 0 0 1-4 0Zm17 0a2 2 0 1 1 4 0 2 2 0 0 1-4 0Zm18 0a2 2 0 1 1 4 0 2 2 0 0 1-4 0Zm17 0a2 2 0 1 1 4 0 2 2 0 0 1-4 0Zm18 0a2 2 0 1 1 4 0 2 2 0 0 1-4 0Zm17 0a2 2 0 1 1 4 0 2 2 0 0 1-4 0Zm18 0a2 2 0 1 1 4 0 2 2 0 0 1-4 0Zm17 0a2 2 0 1 1 4 0 2 2 0 0 1-4 0Zm18 0a2 2 0 1 1 4 0 2 2 0 0 1-4 0Zm17 0a2 2 0 1 1 4 0 2 2 0 0 1-4 0Zm18 0a2 2 0 1 1 4 0 2 2 0 0 1-4 0Zm17 0a2 2 0 1 1 4 0 2 2 0 0 1-4 0Zm18 0a2 2 0 1 1 4 0 2 2 0 0 1-4 0Zm17 0a2 2 0 1 1 4 0 2 2 0 0 1-4 0Zm18 0a2 2 0 1 1 4 0 2 2 0 0 1-4 0Zm17 0a2 2 0 1 1 4 0 2 2 0 0 1-4 0Z" clip-rule="evenodd"/></mask><path fill="#495DCF" fill-opacity=".2" fill-rule="evenodd" d="M0 2a2 2 0 1 1 4 0 2 2 0 0 1-4 0Zm18 0a2 2 0 1 1 4 0 2 2 0 0 1-4 0Zm17 0a2 2 0 1 1 4 0 2 2 0 0 1-4 0Zm18 0a2 2 0 1 1 4 0 2 2 0 0 1-4 0Zm17 0a2 2 0 1 1 4 0 2 2 0 0 1-4 0Zm18 0a2 2 0 1 1 4 0 2 2 0 0 1-4 0Zm17 0a2 2 0 1 1 4 0 2 2 0 0 1-4 0Zm18 0a2 2 0 1 1 4 0 2 2 0 0 1-4 0Zm17 0a2 2 0 1 1 4 0 2 2 0 0 1-4 0Zm18 0a2 2 0 1 1 4 0 2 2 0 0 1-4 0Zm17 0a2 2 0 1 1 4 0 2 2 0 0 1-4 0Zm18 0a2 2 0 1 1 4 0 2 2 0 0 1-4 0Zm17 0a2 2 0 1 1 4 0 2 2 0 0 1-4 0Zm18 0a2 2 0 1 1 4 0 2 2 0 0 1-4 0Zm17 0a2 2 0 1 1 4 0 2 2 0 0 1-4 0Zm18 0a2 2 0 1 1 4 0 2 2 0 0 1-4 0Zm17 0a2 2 0 1 1 4 0 2 2 0 0 1-4 0Z" clip-rule="evenodd" mask="url(#a)"/></svg>