<svg xmlns="http://www.w3.org/2000/svg" width="478.041" height="423" fill="none"><defs><filter id="b" width="220" height="275" x="17" y="133" color-interpolation-filters="sRGB" filterUnits="userSpaceOnUse"><feFlood flood-opacity="0" result="BackgroundImageFix"/><feColorMatrix in="SourceAlpha" result="hardAlpha" values="0 0 0 0 0 0 0 0 0 0 0 0 0 0 0 0 0 0 127 0"/><feOffset dy="5"/><feGaussianBlur stdDeviation="3.333"/><feComposite in2="hardAlpha" k2="-1" k3="1" operator="out"/><feColorMatrix values="0 0 0 0 0.28627 0 0 0 0 0.36471 0 0 0 0 0.81176 0 0 0 0.082 0"/><feBlend in2="BackgroundImageFix" result="effect_dropShadow_1"/><feBlend in="SourceGraphic" in2="effect_dropShadow_1" result="shape"/></filter><filter id="c" width="240" height="295" x="231" y="128" color-interpolation-filters="sRGB" filterUnits="userSpaceOnUse"><feFlood flood-opacity="0" result="BackgroundImageFix"/><feColorMatrix in="SourceAlpha" result="hardAlpha" values="0 0 0 0 0 0 0 0 0 0 0 0 0 0 0 0 0 0 127 0"/><feOffset dy="5"/><feGaussianBlur stdDeviation="3.333"/><feComposite in2="hardAlpha" k2="-1" k3="1" operator="out"/><feColorMatrix values="0 0 0 0 0.28627 0 0 0 0 0.36471 0 0 0 0 0.81176 0 0 0 0.082 0"/><feBlend in2="BackgroundImageFix" result="effect_dropShadow_1"/><feBlend in="SourceGraphic" in2="effect_dropShadow_1" result="shape"/></filter><filter id="d" width="220" height="275" x="241" y="133" color-interpolation-filters="sRGB" filterUnits="userSpaceOnUse"><feFlood flood-opacity="0" result="BackgroundImageFix"/><feColorMatrix in="SourceAlpha" result="hardAlpha" values="0 0 0 0 0 0 0 0 0 0 0 0 0 0 0 0 0 0 127 0"/><feOffset dy="5"/><feGaussianBlur stdDeviation="3.333"/><feComposite in2="hardAlpha" k2="-1" k3="1" operator="out"/><feColorMatrix values="0 0 0 0 0.28627 0 0 0 0 0.36471 0 0 0 0 0.81176 0 0 0 0.082 0"/><feBlend in2="BackgroundImageFix" result="effect_dropShadow_1"/><feBlend in="SourceGraphic" in2="effect_dropShadow_1" result="shape"/></filter></defs><rect width="350" height="346" fill="#E8EAF6" rx="8"/><rect width="350" height="346" rx="8"/><mask id="a" width="350" height="346" x="0" y="0" mask-type="alpha" maskUnits="userSpaceOnUse"><rect width="350" height="346" fill="#E8EAF6" rx="8"/><rect width="350" height="346" stroke="#979797" stroke-opacity="0" stroke-width="0" rx="8"/></mask><g mask="url(#a)"><path fill="#242A45" d="M-3.53.197h547v59h-547z"/><path d="M-3.53.197h547v59h-547z"/><g opacity=".245"><circle cx="38.47" cy="30.197" r="16" fill="#FFF"/><circle cx="38.47" cy="30.197" r="16"/></g><g opacity=".75"><rect width="120" height="6" x="69.47" y="20.197" fill="#FFF" rx="3"/><rect width="120" height="6" x="69.47" y="20.197" rx="3"/></g><g opacity=".25"><rect width="64" height="6" x="69.47" y="34.197" fill="#FFF" rx="3"/><rect width="64" height="6" x="69.47" y="34.197" rx="3"/></g></g><g filter="url(#b)"><rect width="200" height="255" x="27" y="138" fill="#FFF" rx="8"/></g><rect width="200" height="255" x="27" y="138" rx="8"/><g opacity=".5"><rect width="101.317" height="6" x="95.683" y="173" fill="#242A45" rx="3"/><rect width="101.317" height="6" x="95.683" y="173" rx="3"/></g><circle cx="66" cy="183" r="16" fill="#5267DF"/><circle cx="66" cy="183" r="16"/><g opacity=".25"><rect width="54.036" height="6" x="95.683" y="187" fill="#242A45" rx="3"/><rect width="54.036" height="6" x="95.683" y="187" rx="3"/></g><circle cx="66" cy="239" r="16" fill="#5267DF"/><circle cx="66" cy="239" r="16"/><g opacity=".5"><rect width="101.317" height="6" x="95.683" y="229" fill="#242A45" rx="3"/><rect width="101.317" height="6" x="95.683" y="229" rx="3"/></g><g opacity=".25"><rect width="54.036" height="6" x="95.683" y="243" fill="#242A45" rx="3"/><rect width="54.036" height="6" x="95.683" y="243" rx="3"/></g><circle cx="66" cy="295" r="16" fill="#5267DF"/><circle cx="66" cy="295" r="16"/><g opacity=".5"><rect width="101.317" height="6" x="95.683" y="285" fill="#242A45" rx="3"/><rect width="101.317" height="6" x="95.683" y="285" rx="3"/></g><g opacity=".25"><rect width="54.036" height="6" x="95.683" y="299" fill="#242A45" rx="3"/><rect width="54.036" height="6" x="95.683" y="299" rx="3"/></g><circle cx="66" cy="351" r="16" fill="#5267DF"/><circle cx="66" cy="351" r="16"/><g opacity=".5"><rect width="101.317" height="6" x="95.683" y="341" fill="#242A45" rx="3"/><rect width="101.317" height="6" x="95.683" y="341" rx="3"/></g><g opacity=".25"><rect width="54.036" height="6" x="95.683" y="355" fill="#242A45" rx="3"/><rect width="54.036" height="6" x="95.683" y="355" rx="3"/></g><g filter="url(#c)"><g filter="url(#d)"><rect width="200" height="255" x="251" y="138" fill="#FFF" rx="8"/></g><rect width="200" height="255" x="251" y="138" rx="8"/><g opacity=".5"><rect width="101.317" height="6" x="319.683" y="173" fill="#242A45" rx="3"/><rect width="101.317" height="6" x="319.683" y="173" rx="3"/></g><circle cx="290" cy="183" r="16" fill="#5267DF"/><circle cx="290" cy="183" r="16"/><g opacity=".25"><rect width="54.036" height="6" x="319.683" y="187" fill="#242A45" rx="3"/><rect width="54.036" height="6" x="319.683" y="187" rx="3"/></g><circle cx="290" cy="239" r="16" fill="#FA5959"/><circle cx="290" cy="239" r="16"/><g opacity=".5"><rect width="101.317" height="6" x="319.683" y="229" fill="#242A45" rx="3"/><rect width="101.317" height="6" x="319.683" y="229" rx="3"/></g><g opacity=".25"><rect width="54.036" height="6" x="319.683" y="243" fill="#242A45" rx="3"/><rect width="54.036" height="6" x="319.683" y="243" rx="3"/></g><circle cx="290" cy="295" r="16" fill="#5267DF"/><circle cx="290" cy="295" r="16"/><g opacity=".5"><rect width="101.317" height="6" x="319.683" y="285" fill="#242A45" rx="3"/><rect width="101.317" height="6" x="319.683" y="285" rx="3"/></g><g opacity=".25"><rect width="54.036" height="6" x="319.683" y="299" fill="#242A45" rx="3"/><rect width="54.036" height="6" x="319.683" y="299" rx="3"/></g><circle cx="290" cy="351" r="16" fill="#5267DF"/><circle cx="290" cy="351" r="16"/><g opacity=".5"><rect width="101.317" height="6" x="319.683" y="341" fill="#242A45" rx="3"/><rect width="101.317" height="6" x="319.683" y="341" rx="3"/></g><g opacity=".25"><rect width="54.036" height="6" x="319.683" y="355" fill="#242A45" rx="3"/><rect width="54.036" height="6" x="319.683" y="355" rx="3"/></g></g><rect width="237" height="34" x="27" y="85" fill="#FFF" rx="8"/><rect width="237" height="34" x="27" y="85" rx="8"/><circle cx="372" cy="169" r="67" fill="#495DCF" fill-opacity=".2"/><circle cx="372" cy="169" r="67" stroke="#5267DF" stroke-width="20"/><path fill="none" d="M411.957 224.071h-.028c-3.96-3.96-3.96-10.182 0-14.142 3.96-3.96 10.182-3.96 14.142 0v.028l-14.114 14.114Zm63.086 34.858h.028c3.96 3.96 3.96 10.182 0 14.142-3.96 3.96-10.182 3.96-14.142 0v-.028l14.114-14.114Z"/><path stroke="#5267DF" stroke-linecap="round" stroke-linejoin="round" stroke-width="20" d="m419 217 49 49"/></svg>